<mxfile host="app.diagrams.net" modified="2024-01-30T17:05:11.569Z" agent="Mozilla/5.0 (Windows NT 10.0; Win64; x64; rv:109.0) Gecko/20100101 Firefox/115.0" etag="Z891cQ6kl5halF7JGrKF" version="22.1.21" type="github">
  <diagram name="Page-1" id="q8htA9qq_WLoSqnbgUah">
    <mxGraphModel dx="1000" dy="512" grid="1" gridSize="10" guides="1" tooltips="1" connect="1" arrows="1" fold="1" page="1" pageScale="1" pageWidth="850" pageHeight="1100" math="0" shadow="0">
      <root>
        <mxCell id="0" />
        <mxCell id="1" parent="0" />
        <mxCell id="DpdM_tWld6raKIgjBj2J-2" value="Things to do" style="swimlane;whiteSpace=wrap;html=1;" parent="1" vertex="1">
          <mxGeometry x="20" y="40" width="410" height="450" as="geometry" />
        </mxCell>
        <mxCell id="DpdM_tWld6raKIgjBj2J-3" value="&lt;div align=&quot;left&quot;&gt;&lt;ol&gt;&lt;li&gt;Portfolio - Complete and deploy.&lt;/li&gt;&lt;li&gt;Improve Github - Add Projects and start open source&lt;/li&gt;&lt;li&gt;Leetcode - 4 questios a day (Around 300 questios done till feb end)&lt;br&gt;&lt;/li&gt;&lt;/ol&gt;&lt;/div&gt;" style="text;html=1;align=left;verticalAlign=middle;resizable=0;points=[];autosize=1;strokeColor=none;fillColor=none;" parent="DpdM_tWld6raKIgjBj2J-2" vertex="1">
          <mxGeometry x="-5" y="40" width="410" height="80" as="geometry" />
        </mxCell>
      </root>
    </mxGraphModel>
  </diagram>
</mxfile>
